<svg width="1290" height="2796" viewBox="0 0 1290 2796" fill="none" xmlns="http://www.w3.org/2000/svg">
  <rect width="1290" height="2796" rx="96" fill="#020617"/>
  <rect x="64" y="64" width="1162" height="2668" rx="72" fill="url(#bg)"/>
  <text x="128" y="212" fill="#F8FAFC" font-family="Arial, sans-serif" font-size="72" font-weight="700">Fantasy Football Hub</text>
  <text x="128" y="286" fill="#94A3B8" font-family="Arial, sans-serif" font-size="34">Dashboard concept for league, score, and API data views</text>
  <rect x="128" y="360" width="1034" height="220" rx="36" fill="#0F172A" stroke="#334155" stroke-width="8"/>
  <text x="180" y="448" fill="#94A3B8" font-family="Arial, sans-serif" font-size="28">League record</text>
  <text x="180" y="518" fill="#F8FAFC" font-family="Arial, sans-serif" font-size="76" font-weight="700">8-3</text>
  <text x="792" y="448" fill="#94A3B8" font-family="Arial, sans-serif" font-size="28">This week</text>
  <text x="792" y="518" fill="#F97316" font-family="Arial, sans-serif" font-size="76" font-weight="700">+12.4</text>
  <rect x="128" y="648" width="494" height="360" rx="36" fill="#111827" stroke="#334155" stroke-width="8"/>
  <rect x="668" y="648" width="494" height="360" rx="36" fill="#111827" stroke="#334155" stroke-width="8"/>
  <text x="176" y="732" fill="#E2E8F0" font-family="Arial, sans-serif" font-size="38" font-weight="700">Standings</text>
  <text x="176" y="798" fill="#94A3B8" font-family="Arial, sans-serif" font-size="28">1. Northside Blitz</text>
  <text x="176" y="846" fill="#94A3B8" font-family="Arial, sans-serif" font-size="28">2. Sunday Stack</text>
  <text x="176" y="894" fill="#94A3B8" font-family="Arial, sans-serif" font-size="28">3. Fourth & Goal</text>
  <text x="716" y="732" fill="#E2E8F0" font-family="Arial, sans-serif" font-size="38" font-weight="700">Top Matchup</text>
  <text x="716" y="798" fill="#94A3B8" font-family="Arial, sans-serif" font-size="28">You</text>
  <text x="716" y="872" fill="#F8FAFC" font-family="Arial, sans-serif" font-size="86" font-weight="700">128.6</text>
  <text x="716" y="934" fill="#38BDF8" font-family="Arial, sans-serif" font-size="28">Projected to win by 9.1</text>
  <rect x="128" y="1080" width="1034" height="620" rx="36" fill="#0F172A" stroke="#334155" stroke-width="8"/>
  <text x="176" y="1164" fill="#E2E8F0" font-family="Arial, sans-serif" font-size="38" font-weight="700">League pulse</text>
  <rect x="176" y="1248" width="938" height="92" rx="24" fill="#1E293B"/>
  <rect x="176" y="1392" width="780" height="92" rx="24" fill="#1E293B"/>
  <rect x="176" y="1536" width="860" height="92" rx="24" fill="#1E293B"/>
  <rect x="176" y="1680" width="684" height="92" rx="24" fill="#1E293B"/>
  <text x="176" y="1872" fill="#94A3B8" font-family="Arial, sans-serif" font-size="28">API data modules planned for schedule sync, projections, and player status changes.</text>
  <defs>
    <linearGradient id="bg" x1="64" y1="64" x2="1226" y2="2732" gradientUnits="userSpaceOnUse">
      <stop stop-color="#0F172A"/>
      <stop offset="1" stop-color="#111827"/>
    </linearGradient>
  </defs>
</svg>
