<svg width="1024" height="1024" viewBox="0 0 1024 1024" fill="none" xmlns="http://www.w3.org/2000/svg">
  <rect width="1024" height="1024" rx="224" fill="#0F172A"/>
  <rect x="80" y="80" width="864" height="864" rx="180" fill="url(#bg)"/>
  <rect x="180" y="188" width="664" height="648" rx="84" fill="#07101F" stroke="#334155" stroke-width="12"/>
  <path d="M338 436C338 352.053 406.053 284 490 284H534C617.947 284 686 352.053 686 436V476H338V436Z" fill="#EA580C"/>
  <path d="M338 548H686V568C686 651.947 617.947 720 534 720H490C406.053 720 338 651.947 338 568V548Z" fill="#F97316"/>
  <path d="M404 438L448 392" stroke="#FFF7ED" stroke-width="18" stroke-linecap="round"/>
  <path d="M620 438L576 392" stroke="#FFF7ED" stroke-width="18" stroke-linecap="round"/>
  <path d="M454 596L486 628" stroke="#FFF7ED" stroke-width="20" stroke-linecap="round"/>
  <path d="M538 628L570 596" stroke="#FFF7ED" stroke-width="20" stroke-linecap="round"/>
  <rect x="244" y="780" width="536" height="76" rx="38" fill="#111827" stroke="#334155" stroke-width="8"/>
  <text x="512" y="829" text-anchor="middle" fill="#E2E8F0" font-family="Arial, sans-serif" font-size="44" font-weight="700">FF HUB</text>
  <defs>
    <linearGradient id="bg" x1="80" y1="80" x2="944" y2="944" gradientUnits="userSpaceOnUse">
      <stop stop-color="#1E293B"/>
      <stop offset="1" stop-color="#020617"/>
    </linearGradient>
  </defs>
</svg>
