<svg width="1290" height="2796" viewBox="0 0 1290 2796" fill="none" xmlns="http://www.w3.org/2000/svg">
  <rect width="1290" height="2796" rx="96" fill="#020617"/>
  <rect x="64" y="64" width="1162" height="2668" rx="72" fill="#0F172A"/>
  <text x="128" y="212" fill="#F8FAFC" font-family="Arial, sans-serif" font-size="72" font-weight="700">Matchups</text>
  <text x="128" y="286" fill="#94A3B8" font-family="Arial, sans-serif" font-size="34">Projected scores, lineup edges, and game-day swing tracking</text>
  <rect x="128" y="378" width="1034" height="436" rx="36" fill="#111827" stroke="#334155" stroke-width="8"/>
  <text x="176" y="472" fill="#E2E8F0" font-family="Arial, sans-serif" font-size="42" font-weight="700">Northside Blitz vs Sunday Stack</text>
  <text x="176" y="592" fill="#F8FAFC" font-family="Arial, sans-serif" font-size="94" font-weight="700">124.8</text>
  <text x="818" y="592" fill="#F8FAFC" font-family="Arial, sans-serif" font-size="94" font-weight="700">118.2</text>
  <text x="176" y="670" fill="#38BDF8" font-family="Arial, sans-serif" font-size="28">QB + WR stack advantage</text>
  <text x="818" y="670" fill="#F97316" font-family="Arial, sans-serif" font-size="28">Needs MNF comeback</text>
  <rect x="128" y="900" width="1034" height="760" rx="36" fill="#111827" stroke="#334155" stroke-width="8"/>
  <text x="176" y="984" fill="#E2E8F0" font-family="Arial, sans-serif" font-size="38" font-weight="700">Lineup breakdown</text>
  <rect x="176" y="1060" width="938" height="112" rx="28" fill="#1E293B"/>
  <rect x="176" y="1208" width="938" height="112" rx="28" fill="#1E293B"/>
  <rect x="176" y="1356" width="938" height="112" rx="28" fill="#1E293B"/>
  <rect x="176" y="1504" width="938" height="112" rx="28" fill="#1E293B"/>
  <text x="212" y="1130" fill="#E2E8F0" font-family="Arial, sans-serif" font-size="30">QB projection delta</text>
  <text x="890" y="1130" fill="#22C55E" font-family="Arial, sans-serif" font-size="30" font-weight="700">+6.1</text>
  <text x="212" y="1278" fill="#E2E8F0" font-family="Arial, sans-serif" font-size="30">RB floor / volatility</text>
  <text x="890" y="1278" fill="#F97316" font-family="Arial, sans-serif" font-size="30" font-weight="700">High swing</text>
  <text x="212" y="1426" fill="#E2E8F0" font-family="Arial, sans-serif" font-size="30">WR target share</text>
  <text x="890" y="1426" fill="#38BDF8" font-family="Arial, sans-serif" font-size="30" font-weight="700">Stable</text>
  <text x="212" y="1574" fill="#E2E8F0" font-family="Arial, sans-serif" font-size="30">Sunday night leverage</text>
  <text x="890" y="1574" fill="#F8FAFC" font-family="Arial, sans-serif" font-size="30" font-weight="700">2 players left</text>
  <text x="176" y="1770" fill="#94A3B8" font-family="Arial, sans-serif" font-size="28">API integration target: live scoring, projections, injury status, and matchup refreshes.</text>
</svg>
