<svg width="1290" height="2796" viewBox="0 0 1290 2796" fill="none" xmlns="http://www.w3.org/2000/svg">
  <rect width="1290" height="2796" rx="96" fill="#020617"/>
  <rect x="64" y="64" width="1162" height="2668" rx="72" fill="#0F172A"/>
  <text x="128" y="212" fill="#F8FAFC" font-family="Arial, sans-serif" font-size="72" font-weight="700">Waivers & Moves</text>
  <text x="128" y="286" fill="#94A3B8" font-family="Arial, sans-serif" font-size="34">Plan add-drop moves, shortlist pickups, and manage roster changes</text>
  <rect x="128" y="378" width="1034" height="544" rx="36" fill="#111827" stroke="#334155" stroke-width="8"/>
  <text x="176" y="468" fill="#E2E8F0" font-family="Arial, sans-serif" font-size="38" font-weight="700">Priority Targets</text>
  <rect x="176" y="548" width="938" height="110" rx="28" fill="#1E293B"/>
  <rect x="176" y="692" width="938" height="110" rx="28" fill="#1E293B"/>
  <rect x="176" y="836" width="938" height="110" rx="28" fill="#1E293B"/>
  <text x="212" y="616" fill="#F8FAFC" font-family="Arial, sans-serif" font-size="30" font-weight="700">RB Waiver Target</text>
  <text x="212" y="760" fill="#F8FAFC" font-family="Arial, sans-serif" font-size="30" font-weight="700">WR Breakout Watch</text>
  <text x="212" y="904" fill="#F8FAFC" font-family="Arial, sans-serif" font-size="30" font-weight="700">Streaming TE Option</text>
  <text x="876" y="616" fill="#22C55E" font-family="Arial, sans-serif" font-size="28">FAAB 18%</text>
  <text x="876" y="760" fill="#38BDF8" font-family="Arial, sans-serif" font-size="28">FAAB 11%</text>
  <text x="876" y="904" fill="#F97316" font-family="Arial, sans-serif" font-size="28">FAAB 4%</text>
  <rect x="128" y="1008" width="1034" height="720" rx="36" fill="#111827" stroke="#334155" stroke-width="8"/>
  <text x="176" y="1092" fill="#E2E8F0" font-family="Arial, sans-serif" font-size="38" font-weight="700">Roster move planner</text>
  <rect x="176" y="1170" width="440" height="486" rx="28" fill="#1E293B"/>
  <rect x="674" y="1170" width="440" height="486" rx="28" fill="#1E293B"/>
  <text x="224" y="1252" fill="#94A3B8" font-family="Arial, sans-serif" font-size="28">Add</text>
  <text x="722" y="1252" fill="#94A3B8" font-family="Arial, sans-serif" font-size="28">Drop</text>
  <text x="224" y="1336" fill="#F8FAFC" font-family="Arial, sans-serif" font-size="34" font-weight="700">Handcuff RB</text>
  <text x="722" y="1336" fill="#F8FAFC" font-family="Arial, sans-serif" font-size="34" font-weight="700">Bench WR5</text>
  <text x="224" y="1406" fill="#38BDF8" font-family="Arial, sans-serif" font-size="24">High upside if starter misses time</text>
  <text x="722" y="1406" fill="#F97316" font-family="Arial, sans-serif" font-size="24">Low weekly floor, thin target share</text>
  <text x="176" y="1826" fill="#94A3B8" font-family="Arial, sans-serif" font-size="28">Planned API workflows: waiver availability, roster sync, player outlook, and team need calculations.</text>
</svg>
