<svg width="1290" height="2796" viewBox="0 0 1290 2796" fill="none" xmlns="http://www.w3.org/2000/svg">
  <defs>
    <linearGradient id="screen3" x1="160" y1="80" x2="1180" y2="2716" gradientUnits="userSpaceOnUse">
      <stop stop-color="#F5F3FF"/>
      <stop offset="0.54" stop-color="#FFF7ED"/>
      <stop offset="1" stop-color="#FDF2F8"/>
    </linearGradient>
  </defs>
  <rect width="1290" height="2796" rx="120" fill="url(#screen3)"/>
  <text x="120" y="190" fill="#111827" font-family="Arial, sans-serif" font-size="62" font-weight="700">Vendors &amp; wedding day</text>
  <text x="120" y="260" fill="#6B7280" font-family="Arial, sans-serif" font-size="34">Keep vendor status, contracts, and day-of tasks in one place.</text>
  <rect x="120" y="336" width="1050" height="520" rx="48" fill="#FFFFFF" fill-opacity="0.94"/>
  <text x="176" y="420" fill="#7C3AED" font-family="Arial, sans-serif" font-size="34" font-weight="700">Vendor board</text>
  <g font-family="Arial, sans-serif">
    <rect x="176" y="472" width="280" height="308" rx="36" fill="#EDE9FE"/>
    <text x="216" y="540" fill="#5B21B6" font-size="28" font-weight="700">Confirmed</text>
    <text x="216" y="612" fill="#111827" font-size="30" font-weight="700">Venue</text>
    <text x="216" y="654" fill="#475569" font-size="26">Deposit paid</text>
    <text x="216" y="716" fill="#111827" font-size="30" font-weight="700">Photographer</text>
    <text x="216" y="758" fill="#475569" font-size="26">Shot list ready</text>

    <rect x="505" y="472" width="280" height="308" rx="36" fill="#FFEDD5"/>
    <text x="545" y="540" fill="#C2410C" font-size="28" font-weight="700">In review</text>
    <text x="545" y="612" fill="#111827" font-size="30" font-weight="700">Florist</text>
    <text x="545" y="654" fill="#475569" font-size="26">Awaiting mockup</text>
    <text x="545" y="716" fill="#111827" font-size="30" font-weight="700">Transport</text>
    <text x="545" y="758" fill="#475569" font-size="26">Pickup timing pending</text>

    <rect x="834" y="472" width="280" height="308" rx="36" fill="#FCE7F3"/>
    <text x="874" y="540" fill="#BE185D" font-size="28" font-weight="700">To book</text>
    <text x="874" y="612" fill="#111827" font-size="30" font-weight="700">Live musician</text>
    <text x="874" y="654" fill="#475569" font-size="26">Shortlist ready</text>
    <text x="874" y="716" fill="#111827" font-size="30" font-weight="700">Late-night bites</text>
    <text x="874" y="758" fill="#475569" font-size="26">Need final count</text>
  </g>
  <rect x="120" y="922" width="1050" height="1634" rx="48" fill="#FFFFFF" fill-opacity="0.94"/>
  <text x="176" y="1006" fill="#7C3AED" font-family="Arial, sans-serif" font-size="34" font-weight="700">Wedding day checklist</text>
  <g font-family="Arial, sans-serif">
    <rect x="176" y="1064" width="938" height="136" rx="30" fill="#F5F3FF"/>
    <text x="228" y="1136" fill="#111827" font-size="34" font-weight="700">8:00 AM • Hair and makeup begins</text>
    <text x="228" y="1184" fill="#6B7280" font-size="28">Confirm artist access and mirror setup</text>

    <rect x="176" y="1232" width="938" height="136" rx="30" fill="#FFF7ED"/>
    <text x="228" y="1304" fill="#111827" font-size="34" font-weight="700">12:30 PM • Photographer arrival</text>
    <text x="228" y="1352" fill="#6B7280" font-size="28">Share family photo list and detail shots box</text>

    <rect x="176" y="1400" width="938" height="136" rx="30" fill="#FDF2F8"/>
    <text x="228" y="1472" fill="#111827" font-size="34" font-weight="700">3:00 PM • Guest shuttle departs</text>
    <text x="228" y="1520" fill="#6B7280" font-size="28">Verify signage and accessibility support</text>

    <rect x="176" y="1568" width="938" height="136" rx="30" fill="#EEF2FF"/>
    <text x="228" y="1640" fill="#111827" font-size="34" font-weight="700">5:00 PM • Ceremony lineup</text>
    <text x="228" y="1688" fill="#6B7280" font-size="28">Officiant mic check and wedding party positions</text>

    <rect x="176" y="1736" width="938" height="136" rx="30" fill="#F0FDF4"/>
    <text x="228" y="1808" fill="#111827" font-size="34" font-weight="700">7:15 PM • Dinner service opens</text>
    <text x="228" y="1856" fill="#6B7280" font-size="28">Vendor meals, allergy list, and VIP table check</text>

    <rect x="176" y="1904" width="938" height="136" rx="30" fill="#FEF2F2"/>
    <text x="228" y="1976" fill="#111827" font-size="34" font-weight="700">9:40 PM • Sparkler exit setup</text>
    <text x="228" y="2024" fill="#6B7280" font-size="28">Confirm photographer position and guest instructions</text>
  </g>
  <g stroke="#EC4899" stroke-width="10" stroke-linecap="round" stroke-linejoin="round">
    <path d="M194 1118L210 1134L244 1096"/>
    <path d="M194 1286L210 1302L244 1264"/>
    <path d="M194 1454L210 1470L244 1432"/>
  </g>
</svg>
