<svg width="1290" height="2796" viewBox="0 0 1290 2796" fill="none" xmlns="http://www.w3.org/2000/svg">
  <defs>
    <linearGradient id="screen1" x1="80" y1="60" x2="1210" y2="2736" gradientUnits="userSpaceOnUse">
      <stop stop-color="#FFF1F2"/>
      <stop offset="0.52" stop-color="#FDF2F8"/>
      <stop offset="1" stop-color="#F5F3FF"/>
    </linearGradient>
  </defs>
  <rect width="1290" height="2796" rx="120" fill="url(#screen1)"/>
  <text x="120" y="190" fill="#7C2D12" font-family="Arial, sans-serif" font-size="62" font-weight="700">HappilyEverAfter Planner</text>
  <text x="120" y="260" fill="#9A3412" font-family="Arial, sans-serif" font-size="34">Wedding dashboard</text>
  <rect x="120" y="336" width="1050" height="250" rx="48" fill="#FFFFFF" fill-opacity="0.92"/>
  <text x="176" y="420" fill="#BE185D" font-family="Arial, sans-serif" font-size="34" font-weight="700">Countdown</text>
  <text x="176" y="500" fill="#111827" font-family="Arial, sans-serif" font-size="88" font-weight="700">118 days</text>
  <text x="176" y="552" fill="#6B7280" font-family="Arial, sans-serif" font-size="30">Venue walkthrough • Final menu tasting • Send final reminder</text>
  <rect x="120" y="642" width="500" height="340" rx="44" fill="#FFFFFF" fill-opacity="0.92"/>
  <text x="170" y="730" fill="#7C3AED" font-family="Arial, sans-serif" font-size="32" font-weight="700">Budget</text>
  <text x="170" y="818" fill="#111827" font-family="Arial, sans-serif" font-size="80" font-weight="700">$18,420</text>
  <text x="170" y="876" fill="#6B7280" font-family="Arial, sans-serif" font-size="30">Spent of $24,000 total</text>
  <rect x="170" y="910" width="280" height="18" rx="9" fill="#FBCFE8"/>
  <rect x="170" y="910" width="212" height="18" rx="9" fill="#EC4899"/>
  <rect x="670" y="642" width="500" height="340" rx="44" fill="#FFFFFF" fill-opacity="0.92"/>
  <text x="720" y="730" fill="#7C3AED" font-family="Arial, sans-serif" font-size="32" font-weight="700">Vendors</text>
  <text x="720" y="818" fill="#111827" font-family="Arial, sans-serif" font-size="80" font-weight="700">12</text>
  <text x="720" y="876" fill="#6B7280" font-family="Arial, sans-serif" font-size="30">3 awaiting final confirmation</text>
  <rect x="120" y="1046" width="1050" height="500" rx="48" fill="#FFFFFF" fill-opacity="0.92"/>
  <text x="176" y="1130" fill="#BE185D" font-family="Arial, sans-serif" font-size="34" font-weight="700">Upcoming milestones</text>
  <rect x="176" y="1180" width="938" height="94" rx="28" fill="#FFF1F2"/>
  <text x="220" y="1238" fill="#111827" font-family="Arial, sans-serif" font-size="32" font-weight="700">Finalize ceremony outline</text>
  <text x="220" y="1278" fill="#6B7280" font-family="Arial, sans-serif" font-size="28">Due this week</text>
  <rect x="176" y="1304" width="938" height="94" rx="28" fill="#FDF2F8"/>
  <text x="220" y="1362" fill="#111827" font-family="Arial, sans-serif" font-size="32" font-weight="700">Approve florist mockup</text>
  <text x="220" y="1402" fill="#6B7280" font-family="Arial, sans-serif" font-size="28">Requires vendor follow-up</text>
  <rect x="176" y="1428" width="938" height="94" rx="28" fill="#F5F3FF"/>
  <text x="220" y="1486" fill="#111827" font-family="Arial, sans-serif" font-size="32" font-weight="700">Review guest transport schedule</text>
  <text x="220" y="1526" fill="#6B7280" font-family="Arial, sans-serif" font-size="28">Hotel and shuttle timing</text>
  <rect x="120" y="1610" width="1050" height="930" rx="48" fill="#FFFFFF" fill-opacity="0.92"/>
  <text x="176" y="1694" fill="#BE185D" font-family="Arial, sans-serif" font-size="34" font-weight="700">Planning checklist</text>
  <g fill="#111827" font-family="Arial, sans-serif" font-size="32">
    <text x="232" y="1804">Finalize invitation wording</text>
    <text x="232" y="1928">Confirm rehearsal dinner headcount</text>
    <text x="232" y="2052">Approve photographer timeline</text>
    <text x="232" y="2176">Book hair and makeup trial</text>
    <text x="232" y="2300">Assign welcome bag assembly</text>
  </g>
  <g fill="#6B7280" font-family="Arial, sans-serif" font-size="28">
    <text x="232" y="1848">In progress</text>
    <text x="232" y="1972">Awaiting RSVPs</text>
    <text x="232" y="2096">Approved</text>
    <text x="232" y="2220">Booked</text>
    <text x="232" y="2344">Pending owner</text>
  </g>
  <g stroke="#EC4899" stroke-width="8">
    <circle cx="186" cy="1790" r="18"/>
    <circle cx="186" cy="1914" r="18"/>
    <circle cx="186" cy="2038" r="18"/>
    <circle cx="186" cy="2162" r="18"/>
    <circle cx="186" cy="2286" r="18"/>
  </g>
</svg>
