<svg width="1200" height="630" viewBox="0 0 1200 630" fill="none" xmlns="http://www.w3.org/2000/svg">
  <defs>
    <linearGradient id="bg" x1="70" y1="30" x2="1140" y2="620" gradientUnits="userSpaceOnUse">
      <stop stop-color="#F8FAFC"/>
      <stop offset="1" stop-color="#EEF2FF"/>
    </linearGradient>
    <linearGradient id="card" x1="650" y1="130" x2="980" y2="470" gradientUnits="userSpaceOnUse">
      <stop stop-color="#0F172A"/>
      <stop offset="1" stop-color="#0E7490"/>
    </linearGradient>
  </defs>
  <rect width="1200" height="630" fill="url(#bg)"/>
  <circle cx="1050" cy="110" r="120" fill="#0EA5E914"/>
  <circle cx="150" cy="540" r="120" fill="#0F172A0D"/>
  <rect x="70" y="70" width="1060" height="490" rx="36" fill="white" stroke="#E2E8F0"/>
  <text x="130" y="205" fill="#64748B" font-size="22" font-family="Inter, Arial, sans-serif" letter-spacing="3">INDEPENDENT IOS DEVELOPER</text>
  <text x="130" y="290" fill="#0F172A" font-size="68" font-family="Inter, Arial, sans-serif" font-weight="700">Tamem J</text>
  <text x="130" y="355" fill="#334155" font-size="36" font-family="Inter, Arial, sans-serif">Designing Simple, Beautiful iOS Apps</text>
  <text x="130" y="435" fill="#64748B" font-size="24" font-family="Inter, Arial, sans-serif">Portfolio • App Support • Privacy Policy • Contact</text>
  <rect x="745" y="135" width="300" height="360" rx="34" fill="url(#card)"/>
  <rect x="775" y="178" width="240" height="16" rx="8" fill="#FFFFFF33"/>
  <rect x="775" y="215" width="180" height="14" rx="7" fill="#FFFFFF26"/>
  <rect x="775" y="265" width="240" height="80" rx="18" fill="#FFFFFF12" stroke="#FFFFFF1A"/>
  <rect x="775" y="365" width="114" height="98" rx="18" fill="#FFFFFF12" stroke="#FFFFFF1A"/>
  <rect x="901" y="365" width="114" height="98" rx="18" fill="#FFFFFF12" stroke="#FFFFFF1A"/>
</svg>
