<svg width="256" height="256" viewBox="0 0 256 256" fill="none" xmlns="http://www.w3.org/2000/svg" role="img" aria-label="Buy Me a Coffee logo">
  <defs>
    <linearGradient id="bmc-bg" x1="32" y1="24" x2="224" y2="232" gradientUnits="userSpaceOnUse">
      <stop stop-color="#FFE66D"/>
      <stop offset="1" stop-color="#FFD32D"/>
    </linearGradient>
  </defs>
  <rect x="16" y="16" width="224" height="224" rx="40" fill="url(#bmc-bg)"/>
  <rect x="70" y="96" width="104" height="62" rx="14" fill="#1F2937"/>
  <path d="M172 106H186C197 106 204 113 204 124C204 135 197 142 186 142H172V130H183C187.4 130 190 127.4 190 124C190 120.6 187.4 118 183 118H172V106Z" fill="#1F2937"/>
  <rect x="84" y="84" width="76" height="10" rx="5" fill="#1F2937"/>
  <path d="M97 170H159" stroke="#1F2937" stroke-width="10" stroke-linecap="round"/>
  <circle cx="102" cy="127" r="8" fill="#FFE66D"/>
  <circle cx="126" cy="127" r="8" fill="#FFE66D"/>
  <circle cx="150" cy="127" r="8" fill="#FFE66D"/>
</svg>
