<svg width="1024" height="1024" viewBox="0 0 1024 1024" fill="none" xmlns="http://www.w3.org/2000/svg">
  <defs>
    <linearGradient id="bg" x1="140" y1="96" x2="876" y2="920" gradientUnits="userSpaceOnUse">
      <stop stop-color="#0F172A"/>
      <stop offset="0.5" stop-color="#1D4ED8"/>
      <stop offset="1" stop-color="#14B8A6"/>
    </linearGradient>
    <linearGradient id="panel" x1="282" y1="186" x2="752" y2="830" gradientUnits="userSpaceOnUse">
      <stop stop-color="#F8FAFC" stop-opacity="0.98"/>
      <stop offset="1" stop-color="#E2E8F0" stop-opacity="0.92"/>
    </linearGradient>
    <linearGradient id="accent" x1="258" y1="584" x2="770" y2="584" gradientUnits="userSpaceOnUse">
      <stop stop-color="#F97316"/>
      <stop offset="1" stop-color="#FB7185"/>
    </linearGradient>
  </defs>
  <rect width="1024" height="1024" rx="232" fill="url(#bg)"/>
  <circle cx="808" cy="216" r="124" fill="#93C5FD" fill-opacity="0.18"/>
  <circle cx="232" cy="812" r="146" fill="#FDE68A" fill-opacity="0.14"/>
  <rect x="222" y="168" width="580" height="688" rx="84" fill="url(#panel)"/>
  <rect x="282" y="246" width="458" height="54" rx="27" fill="#DBEAFE"/>
  <rect x="282" y="332" width="274" height="26" rx="13" fill="#CBD5E1"/>
  <rect x="282" y="384" width="348" height="26" rx="13" fill="#CBD5E1"/>
  <rect x="282" y="452" width="458" height="124" rx="34" fill="#EFF6FF"/>
  <rect x="316" y="490" width="156" height="24" rx="12" fill="#1D4ED8" fill-opacity="0.18"/>
  <rect x="316" y="534" width="120" height="42" rx="21" fill="#1D4ED8" fill-opacity="0.12"/>
  <rect x="452" y="534" width="114" height="42" rx="21" fill="#14B8A6" fill-opacity="0.14"/>
  <rect x="582" y="534" width="124" height="42" rx="21" fill="#F97316" fill-opacity="0.14"/>
  <rect x="258" y="620" width="512" height="164" rx="42" fill="url(#accent)"/>
  <path d="M334 700H424" stroke="white" stroke-width="32" stroke-linecap="round"/>
  <path d="M600 700H690" stroke="white" stroke-width="32" stroke-linecap="round"/>
  <path d="M512 646V754" stroke="white" stroke-width="34" stroke-linecap="round"/>
  <circle cx="512" cy="700" r="164" stroke="#FFFFFF" stroke-opacity="0.18" stroke-width="18"/>
</svg>
